<?xml version="1.0" encoding="utf-8"?>
<!-- Generator: Adobe Illustrator 26.2.1, SVG Export Plug-In . SVG Version: 6.00 Build 0)  -->
<svg version="1.1" id="Layer_1" xmlns="http://www.w3.org/2000/svg" xmlns:xlink="http://www.w3.org/1999/xlink" x="0px" y="0px"
	 viewBox="0 0 619 512" style="enable-background:new 0 0 619 512;" xml:space="preserve">
<style type="text/css">
	.st0{fill:none;stroke:#231F20;stroke-width:3;stroke-miterlimit:10;}
	.st1{fill:#231F20;}
</style>
<path class="st0" d="M126.56,331.21c0,0,46.19-12.01,57.37-19.92c11.18-7.91,26.79-17.57,33.16-26.58
	c6.37-9.01,35.44-53.12,42.92-66.94c7.48-13.82,38.26-66.9,50.85-77.33c12.59-10.43,27.63-28.76,36.63-31.13
	c9.01-2.37,14.07-3.07,16.98-1.14c2.91,1.92,9.3,49.5,9.3,49.5s-6.91,12.27-4.99,19.32c2.29,8.44,9.25,16.83,18.14,17.97l9.79,38.32
	c0,0-7.88,7.18-5.34,12.37c1.87,3.83,6.42,4.39,9.93,4.5c0,0,3.75,19.31,11.04,25.92c7.29,6.6,6.12,19.58,22.88,27.25
	c16.76,7.67,23.33,21.94,37.19,25.33c13.86,3.39,51.92,13.45,63.26,15.43"/>
<path class="st0" d="M348.1,331.01c-87.81-34.66-129.88,26.1-182.55,41.59"/>
<path class="st0" d="M422.56,381.24c-19.44-8.27-39.81-17.29-61.76-25.96c-36.82-14.53-65.59-12.29-90.48-3.64"/>
<g>
	<path class="st1" d="M65.04,409.01h18.82c5.02,0,9.32,2.27,12.89,6.81c3.52,4.48,5.29,9.93,5.29,16.34
		c0,6.73-1.76,12.47-5.29,17.22c-3.58,4.75-7.88,7.13-12.89,7.13H65.04V409.01z M83.86,453.46c4.11,0,7.63-2.08,10.57-6.25
		c2.94-4.17,4.41-9.18,4.41-15.06c0-5.55-1.47-10.28-4.41-14.18c-2.94-3.9-6.46-5.85-10.57-5.85H68.24v41.33H83.86z"/>
	<path class="st1" d="M127.3,456.5v-47.49h31v3.12H130.5v18.26h25.39v2.96H130.5v20.1h27.79v3.04H127.3z"/>
	<path class="st1" d="M182.03,456.5v-47.49h31v3.12h-27.79v18.26h25.39v2.96h-25.39v20.1h27.79v3.04H182.03z"/>
	<path class="st1" d="M236.76,456.5v-47.49h21.46c3.1,0,5.71,1.26,7.85,3.76c2.19,2.51,3.28,5.53,3.28,9.05
		c0,3.68-1.09,6.83-3.28,9.45c-2.14,2.62-4.75,3.92-7.85,3.92h-18.26v21.3H236.76z M257.66,432.16c2.35,0,4.35-0.96,6.01-2.88
		c1.65-1.87,2.48-4.16,2.48-6.89c0-2.83-0.83-5.26-2.48-7.29c-1.66-1.97-3.66-2.96-6.01-2.96h-17.7v20.02H257.66z"/>
	<path class="st1" d="M337.25,409.01h22.11c2.88,0,5.37,1.1,7.45,3.28c2.03,2.24,3.04,4.91,3.04,8.01c0,2.94-0.61,5.47-1.84,7.61
		c-1.18,2.14-2.7,3.36-4.57,3.68c2.46,0.43,4.51,1.74,6.17,3.92c1.6,2.19,2.4,4.73,2.4,7.61c0,3.68-1.23,6.84-3.68,9.45
		c-2.51,2.62-5.5,3.92-8.97,3.92h-22.11V409.01z M358.72,430.4c2.19,0,4.06-0.99,5.61-2.96c1.55-1.98,2.32-4.35,2.32-7.13
		c0-2.24-0.77-4.16-2.32-5.77c-1.55-1.6-3.42-2.4-5.61-2.4h-18.26v18.26H358.72z M358.72,453.46c2.78,0,5.15-1.01,7.13-3.04
		c1.97-2.03,2.96-4.46,2.96-7.29c0-2.72-0.99-5.02-2.96-6.89c-1.98-1.92-4.35-2.88-7.13-2.88h-18.26v20.1H358.72z"/>
	<path class="st1" d="M397.19,409.01h3.2v44.45h25.55v3.04h-28.75V409.01z"/>
	<path class="st1" d="M453.53,452.9c-3.47-3.2-5.21-7.07-5.21-11.61v-32.28h3.2v32.28c0,3.74,1.44,6.92,4.32,9.53
		c2.83,2.62,6.27,3.92,10.33,3.92c3.84,0,7.15-1.31,9.93-3.92c2.72-2.62,4.08-5.79,4.08-9.53v-32.28h3.2v32.28
		c0,4.54-1.68,8.41-5.05,11.61s-7.42,4.81-12.17,4.81C461.27,457.71,457.05,456.1,453.53,452.9z"/>
	<path class="st1" d="M510.58,456.5v-47.49h31v3.12h-27.79v18.26h25.39v2.96h-25.39v20.1h27.79v3.04H510.58z"/>
</g>
<path class="st0" d="M574.38,356.28c4.38-19.36,6.7-39.51,6.7-60.2c0-149.99-121.59-271.58-271.58-271.58S37.92,146.09,37.92,296.08
	c0,20.5,0.03,31.33,4.34,50.54l1.47,6.93c36.97,4.62,61.23,10.4,120.16-6.93c52.67-15.49,94.74-76.25,182.55-41.59
	s144.7,77.99,224.42,52.57L574.38,356.28z"/>
</svg>
